:SAMPLES-PER-SECOND 30
:FRAME-RANGE 1-1700
:FULLY-SPECIFIED
:DEGREES
1647
root  116.884 38.832 43.3067 -174.501 13.745 175.387
RightUpLeg  -27.178 -1.18243 -6.10881
RightLeg  3.07219 -0.339794 -1.27344
RightFoot  -8.35151 -0.376401 12.1963
RightToes  6.35937e-011 1.2921e-014 -6.02303e-014
Spine  -4.45908 -3.96627 -2.54848
Spine1  7.86128 -3.69998 -0.280316
HEad  47.8677 13.3856 -1.22813
LeftShoulder1  1.19337 -2.72523 -13.0104
LeftArm  1.70179 -19.5611 -58.8698
LeftForeArm  35.8826 -7.66706 -10.8728
LeftHand  -0.0323883 4.81315 1.54875
RightShoulder  0.970718 -0.436872 27.7361
RightArm  -32.0506 -17.7652 52.2415
RightForeArm  81.7173 -4.43433 1.2168
RightHand  0.0523342 -6.01027 -13.2787
LeftUpLeg  1.86139 0.665453 -8.05082
LeftLeg  14.5318 -5.2472 -0.819709
LeftFoot  -15.8941 0.225913 3.28051
LeftToes  -1.9349e-011 5.45182e-011 1.33515e-010
1648
root  117.512 38.3499 41.6897 -174.354 12.6018 174.699
RightUpLeg  -26.6108 -1.88755 -5.92154
RightLeg  -2.86025 -2.27079 -0.552767
RightFoot  -12.8367 0.0659884 11.7197
RightToes  6.35937e-011 1.2921e-014 -6.02303e-014
Spine  -5.30161 -4.47657 -3.58704
Spine1  7.91404 -4.10676 0.126308
HEad  47.6609 14.6334 -1.01456
LeftShoulder1  1.34416 -3.33359 -13.5176
LeftArm  1.93558 -20.0331 -58.1771
LeftForeArm  36.1129 -6.48298 -11.3449
LeftHand  -0.033094 4.56034 1.33234
RightShoulder  0.913606 -0.572434 27.2922
RightArm  -29.6908 -19.0397 51.9757
RightForeArm  78.6939 -4.81521 2.70594
RightHand  0.0743271 -6.25717 -12.6393
LeftUpLeg  3.27265 0.650517 -8.12438
LeftLeg  17.2166 -6.56218 -1.2549
LeftFoot  -18.2422 0.267911 2.62616
LeftToes  -1.9349e-011 5.45182e-011 1.33515e-010
1649
root  118.08 38.1104 40.1567 -174.37 12.611 174.902
RightUpLeg  -27.9003 -1.57831 -5.13934
RightLeg  1.70467 -0.803615 -0.29824
RightFoot  -13.9344 0.176967 11.9722
RightToes  6.35937e-011 1.2921e-014 -6.02303e-014
Spine  -4.6818 -4.37884 -3.97738
Spine1  7.67584 -4.61765 2.13794
HEad  48.4479 17.5977 -0.843231
LeftShoulder1  1.37655 -3.10585 -14.8625
LeftArm  3.30593 -19.6783 -57.3646
LeftForeArm  35.5567 -6.40447 -11.6925
LeftHand  -0.0306458 4.54265 0.729173
RightShoulder  1.04242 -0.0272234 25.635
RightArm  -27.1705 -20.1294 52.1463
RightForeArm  75.8233 -3.35172 4.38841
RightHand  0.0617408 -6.04227 -14.1426
LeftUpLeg  5.45915 0.207577 -7.6777
LeftLeg  18.4341 -6.34357 -1.17369
LeftFoot  -18.6623 0.146106 0.533494
LeftToes  -1.9349e-011 5.45182e-011 1.33515e-010
1650
root  118.572 38.2948 38.7694 -174.098 13.4622 176.557
RightUpLeg  -30.3971 1.79824 -3.79511
RightLeg  9.53706 -0.346524 -1.04233
RightFoot  -5.28934 -0.478148 8.34782
RightToes  6.35937e-011 1.2921e-014 -6.02303e-014
Spine  -4.30774 -3.64054 0.330073
Spine1  8.78929 -4.04391 0.90073
HEad  50.5018 21.513 1.28081
LeftShoulder1  1.49585 -3.54198 -15.2745
LeftArm  3.73857 -19.2677 -56.6471
LeftForeArm  36.3452 -5.82782 -11.9842
LeftHand  -0.0274185 4.61203 0.399795
RightShoulder  0.971808 -0.291803 26.0825
RightArm  -22.3951 -19.6223 50.881
RightForeArm  72.5773 1.97005 7.20763
RightHand  0.163164 -6.86301 -14.3948
LeftUpLeg  8.0096 -1.16694 -6.08972
LeftLeg  17.6297 -5.10298 -0.963687
LeftFoot  -16.2503 0.00790935 -2.08814
LeftToes  -1.9349e-011 5.45182e-011 1.33515e-010
1651
root  119.114 38.265 37.2415 -174.221 13.5671 177.858
RightUpLeg  -31.257 5.09882 -3.5492
RightLeg  16.2225 -3.18791 -1.34138
RightFoot  -4.13552 -0.628093 9.50558
RightToes  6.35937e-011 1.2921e-014 -6.02303e-014
Spine  -4.01209 -3.79421 2.22998
Spine1  9.73722 -4.5764 1.73683
HEad  53.7663 27.2132 3.10218
LeftShoulder1  1.63 -3.51735 -17.5034
LeftArm  5.05013 -19.1895 -55.0428
LeftForeArm  36.117 -5.26554 -12.4841
LeftHand  -0.0287405 4.58317 0.62983
RightShoulder  1.079 0.186123 24.7073
RightArm  -17.9646 -17.9822 51.0764
RightForeArm  69.0651 7.71445 8.99728
RightHand  0.276517 -7.52848 -16.0099
LeftUpLeg  8.45179 -1.73249 -4.29221
LeftLeg  22.0912 -4.94638 -1.8678
LeftFoot  -13.3994 -0.023777 -5.78712
LeftToes  -1.9349e-011 5.45182e-011 1.33515e-010
1652
root  119.696 38.1924 35.7623 -174.215 13.1963 178.847
RightUpLeg  -31.3424 1.97916 -1.13981
RightLeg  21.7385 -0.977881 -0.643254
RightFoot  -5.25493 -0.555777 9.75638
RightToes  6.35937e-011 1.2921e-014 -6.02303e-014
Spine  -3.54269 -4.14323 3.67765
Spine1  10.0164 -5.04405 1.99307
HEad  58.6268 32.4765 6.71572
LeftShoulder1  1.80014 -4.05018 -18.1363
LeftArm  3.4718 -21.7902 -55.1162
LeftForeArm  37.5216 1.97621 -13.4144
LeftHand  -0.056905 3.23897 2.21242
RightShoulder  1.12869 0.42776 24.0165
RightArm  -2.72868 -15.5597 51.7192
RightForeArm  54.9488 16.1119 7.19545
RightHand  0.374992 -8.07987 -16.9413
LeftUpLeg  5.79226 0.723165 -1.20426
LeftLeg  31.0955 -7.86105 -4.74027
LeftFoot  -7.6031 0.379355 -10.2112
LeftToes  -1.9349e-011 5.45182e-011 1.33515e-010
1653
root  120.281 38.2292 34.4608 -173.939 12.106 179.6
RightUpLeg  -31.1628 2.0094 0.273628
RightLeg  25.6286 -1.49378 -1.00542
RightFoot  -6.36026 -0.283156 5.50997
RightToes  6.35937e-011 1.2921e-014 -6.02303e-014
Spine  -4.21131 -4.27116 4.34009
Spine1  12.0375 -5.64661 3.47134
HEad  62.287 35.3578 10.1425
LeftShoulder1  1.91643 -4.57149 -17.9827
LeftArm  5.27808 -21.8274 -55.2211
LeftForeArm  38.1941 0.597825 -13.7743
LeftHand  -0.027968 3.78064 0.56736
RightShoulder  1.11337 0.55986 22.5031
RightArm  8.33551 -13.5085 53.446
RightForeArm  45.0459 25.7269 3.17933
RightHand  0.469503 -8.78326 -16.7076
LeftUpLeg  0.617603 1.34632 1.31838
LeftLeg  41.5639 -7.69035 -6.86508
LeftFoot  0.790876 1.63108 -15.3188
LeftToes  -1.9349e-011 5.45182e-011 1.33515e-010
1654
root  120.874 38.2082 33.2272 -174.427 11.4384 179.963
RightUpLeg  -29.9594 3.07778 1.14828
RightLeg  28.9733 -2.88233 -1.96387
RightFoot  -8.89344 -0.13764 3.61311
RightToes  6.35937e-011 1.2921e-014 -6.02303e-014
Spine  -3.73493 -3.94059 5.61105
Spine1  12.6378 -5.08446 3.11195
HEad  64.8494 36.3429 13.6701
LeftShoulder1  2.05852 -5.29962 -17.5426
LeftArm  6.74379 -23.5552 -55.5548
LeftForeArm  40.8544 1.46376 -14.1581
LeftHand  -0.0182661 3.75656 -0.165233
RightShoulder  1.10684 0.53287 22.5357
RightArm  8.83974 -12.5314 52.7769
RightForeArm  47.5534 36.7844 5.57237
RightHand  0.488535 -9.39754 -14.8418
LeftUpLeg  -4.77276 1.84947 2.78217
LeftLeg  51.2445 -5.47601 -6.82517
LeftFoot  12.0761 3.52691 -17.2665
LeftToes  -1.9349e-011 5.45182e-011 1.33515e-010
1655
root  121.445 38.2609 31.9501 -175.183 11.639 -179.699
RightUpLeg  -27.5051 3.31455 2.25116
RightLeg  30.6324 -2.90178 -2.0987
RightFoot  -11.635 -0.0712642 2.9765
RightToes  6.35937e-011 1.2921e-014 -6.02303e-014
Spine  -2.75078 -3.41164 7.25483
Spine1  12.484 -4.12174 2.04361
HEad  67.491 38.4317 16.3851
LeftShoulder1  2.06914 -5.09699 -18.3042
LeftArm  9.16583 -25.0538 -55.1473
LeftForeArm  41.0406 0.873578 -14.5729
LeftHand  -0.0205495 4.00842 -0.115771
RightShoulder  1.20748 0.973 21.9077
RightArm  10.6285 -11.057 53.179
RightForeArm  48.2464 46.6531 8.46794
RightHand  0.39614 -9.14194 -13.0944
LeftUpLeg  -9.34551 2.6066 3.63067
LeftLeg  58.5106 -2.13472 -3.21667
LeftFoot  17.6098 4.50774 -17.7668
LeftToes  -1.9349e-011 5.45182e-011 1.33515e-010
1656
root  122.018 38.4471 30.6558 -175.576 11.8629 -179.988
RightUpLeg  -24.7862 2.33795 2.76226
RightLeg  30.8078 -2.02344 -1.54883
RightFoot  -13.764 -0.0482554 2.12701
RightToes  6.35937e-011 1.2921e-014 -6.02303e-014
Spine  -2.90928 -2.8373 7.68363
Spine1  12.8815 -3.28766 1.3172
HEad  69.7953 39.6516 18.2996
LeftShoulder1  2.16547 -5.47649 -18.3403
LeftArm  10.262 -25.462 -54.8097
LeftForeArm  39.5358 -0.110802 -14.6599
LeftHand  -0.0324389 4.02142 0.966115
RightShoulder  1.25903 1.26761 21.1834
RightArm  14.1876 -8.37943 54.3213
RightForeArm  48.6385 55.2029 12.0647
RightHand  0.298755 -9.02623 -10.5498
LeftUpLeg  -13.9705 3.33232 3.25086
LeftLeg  63.5326 -0.429646 -0.293364
LeftFoot  12.105 2.10651 -10.4877
LeftToes  -1.9349e-011 5.45182e-011 1.33515e-010
